# xmcd CD database file
#
# Track frame offsets:
#	150
#	15810
#	31686
#	45344
#	65087
#	93182
#	117385
#	133491
#	159465
#	176490
#	191052
#	211793
#	226712
#	245563
#	260266
#
# Disc length: 3692 seconds
#
# Revision: 5
# Processed by: cddbd v1.5.1PL0 Copyright (c) Steve Scherf et al.
# Submitted via: CDex 1.51
#
DISCID=bc0e6a0f
DTITLE=Jools Holland And The Rhythm and Blues Orchestra - Live Performance
DYEAR=1994
DGENRE=Boogie Woogie
TTITLE0=Bumble Boogie
TTITLE1=Bad Luck Blues
TTITLE2=Skin The Cat
TTITLE3=Mean Old Man's World
TTITLE4=Dr Jazz
TTITLE5=High Street
TTITLE6=I Saw The Light
TTITLE7=Should've Known Better
TTITLE8=Able Mabel
TTITLE9=Maiden's Lament
TTITLE10=Biggie Wiggie
TTITLE11=May Be I Need Her
TTITLE12=I Gotta Woman
TTITLE13=Smoking Shuffle
TTITLE14=Hop Skip And Jump
EXTD=YEAR: 1994
EXTT0=
EXTT1=
EXTT2=
EXTT3=
EXTT4=
EXTT5=
EXTT6=
EXTT7=
EXTT8=
EXTT9=
EXTT10=
EXTT11=
EXTT12=
EXTT13=
EXTT14=
PLAYORDER=
